# xmcd
#
# Track frame offsets: 
#        183
#        20430
#        38133
#        56270
#        76600
#        98093
#        122443
#        144153
#        161890
#        175320
#        186185
#        211528
#        228983
#        259445
#        288250
#
# Disc length: 4492 seconds
#
# Revision: 0
# Processed by: cddbd v1.4PL0 Copyright (c) Steve Scherf et al.
# Submitted via: ExactAudioCopy v0.90a11
#
DISCID=bc118a0f
DTITLE=John Lee Hooker - Hook, Line and Sinker
DYEAR=1900
DGENRE=
TTITLE0=One Scotch, One Bourbon, One Beer
TTITLE1=Boom Boom
TTITLE2=Mable
TTITLE3=Serve Me Right To Suffer
TTITLE4=Shout
TTITLE5=Sugar Mama
TTITLE6=One Room Country Shack
TTITLE7=Highway 13
TTITLE8=Father Was A Jockey
TTITLE9=Bottle Up And Go
TTITLE10=Stormy Monday
TTITLE11=I Didn't Know
TTITLE12=I'm In The Mood
TTITLE13=The Healer
TTITLE14=Boogie Chillun
EXTD=Blue Knight Records BKR 011\n(p) 1993 (BOOTLEG]\n\nTracks 1-5 and
EXTD=10-12 recorded live at:\nPeabody's, Cleveland, Ohio\n\nTracks 6 
EXTD=& 7 recorded live at:\nKeystone, Palo Alto, California\n(with Cha
EXTD=rlie Musslewhite harm, and\nJohn Garcia jr. guitar]\n\nTracks 13-
EXTD=15 recorded live at:\n13th Annual Bammies Civic Auditorium,\nSan 
EXTD=Francisco, California\n\nTracks 8 and 9 recorded live at:\nSeagream
EXTD='s Taste of Blues Festival,\nSan Francisco, California\n(with Joh
EXTD=n  Hammond harm. and guitar]\n\nTrack 13\n(with Bonnie Raitt (slide
EXTD=guitar, voc.]\n\nTrack 14\n(with Carlos Santana guitar &\nMerl S
EXTD=aunders keyb.]\n\nTrack 15\n(with All Star Band)
EXTT0=
EXTT1=
EXTT2=
EXTT3=
EXTT4=
EXTT5=
EXTT6=
EXTT7=
EXTT8=
EXTT9=
EXTT10=
EXTT11=
EXTT12=
EXTT13=
EXTT14=
PLAYORDER=
